<svg xmlns="http://www.w3.org/2000/svg" width="32" height="32" viewBox="0 0 32 32">
  <path fill="#FF69B4" d="M16 2C8.268 2 2 8.268 2 16s6.268 14 14 14 14-6.268 14-14S23.732 2 16 2zm0 25.2c-6.187 0-11.2-5.013-11.2-11.2S9.813 4.8 16 4.8 27.2 9.813 27.2 16 22.187 27.2 16 27.2z"/>
  <path fill="#FF69B4" d="M16 7.6c-4.633 0-8.4 3.767-8.4 8.4s3.767 8.4 8.4 8.4 8.4-3.767 8.4-8.4-3.767-8.4-8.4-8.4zm0 14c-3.093 0-5.6-2.507-5.6-5.6s2.507-5.6 5.6-5.6 5.6 2.507 5.6 5.6-2.507 5.6-5.6 5.6z"/>
  <circle fill="#FF69B4" cx="16" cy="16" r="2.8"/>
</svg>